<svg width="22" height="30" viewBox="0 0 22 30" fill="none" xmlns="http://www.w3.org/2000/svg">
<g filter="url(#filter0_d_905_213)">
<path d="M10 1.25C15.3726 1.25 19.7499 5.68397 19.75 11.1406L19.7441 11.459C19.6812 13.0639 19.1524 14.8475 18.3662 16.6504C17.529 18.5703 16.4072 20.4949 15.2695 22.2217C13.5629 24.8119 11.8284 26.9467 10.9893 27.9414L10.4824 28.5312C10.2405 28.8042 9.83041 28.8216 9.56738 28.582L9.51758 28.5312C9.33058 28.3201 7.00601 25.6754 4.73047 22.2217C3.59278 20.4949 2.47102 18.5703 1.63379 16.6504C0.795223 14.7274 0.25005 12.8263 0.25 11.1406C0.25 5.68398 4.62732 1.25 10 1.25Z" fill="url(#paint0_linear_905_213)" stroke="#454545" stroke-width="0.5"/>
<circle cx="10" cy="11" r="5.75" fill="url(#paint1_linear_905_213)" stroke="#075C00" stroke-width="0.5"/>
</g>
<defs>
<filter id="filter0_d_905_213" x="0" y="0" width="22" height="29.9997" filterUnits="userSpaceOnUse" color-interpolation-filters="sRGB">
<feFlood flood-opacity="0" result="BackgroundImageFix"/>
<feColorMatrix in="SourceAlpha" type="matrix" values="0 0 0 0 0 0 0 0 0 0 0 0 0 0 0 0 0 0 127 0" result="hardAlpha"/>
<feOffset dx="1"/>
<feGaussianBlur stdDeviation="0.5"/>
<feColorMatrix type="matrix" values="0 0 0 0 0 0 0 0 0 0 0 0 0 0 0 0 0 0 0.6 0"/>
<feBlend mode="normal" in2="BackgroundImageFix" result="effect1_dropShadow_905_213"/>
<feBlend mode="normal" in="SourceGraphic" in2="effect1_dropShadow_905_213" result="shape"/>
</filter>
<linearGradient id="paint0_linear_905_213" x1="-7.58751e-08" y1="11" x2="15" y2="11.5" gradientUnits="userSpaceOnUse">
<stop stop-color="#687075"/>
<stop offset="1" stop-color="#F5F7F6"/>
</linearGradient>
<linearGradient id="paint1_linear_905_213" x1="4.00029" y1="10.4287" x2="16.0003" y2="10.4287" gradientUnits="userSpaceOnUse">
<stop stop-color="#056802"/>
<stop offset="1" stop-color="#11FA74"/>
</linearGradient>
</defs>
</svg>
